<svg width="264" height="83" viewBox="0 0 264 83" fill="none" xmlns="http://www.w3.org/2000/svg">
<rect x="0.569872" y="1.37053" width="52.6133" height="80.9237" rx="3.66469" fill="black"/>
<rect x="0.569872" y="1.37053" width="52.6133" height="80.9237" rx="3.66469" stroke="#ED0137" stroke-width="0.860255"/>
<path d="M41.8695 49.4735C41.8695 52.4427 41.5221 55.0645 40.8271 57.3388C40.1533 59.592 39.1741 61.4767 37.8895 62.9929C36.6049 64.5302 35.0361 65.6884 33.183 66.4676C31.3298 67.2467 29.245 67.6363 26.9286 67.6363C24.6333 67.6363 22.559 67.2467 20.7059 66.4676C18.8527 65.6884 17.2839 64.5302 15.9993 62.9929C14.6937 61.4767 13.6829 59.592 12.9669 57.3388C12.272 55.0645 11.9245 52.4427 11.9245 49.4735V38.481C11.9245 35.5118 12.272 32.9005 12.9669 30.6473C13.6619 28.373 14.6621 26.4672 15.9677 24.93C17.2523 23.4138 18.8106 22.2661 20.6427 21.4869C22.4958 20.7078 24.5701 20.3182 26.8654 20.3182C29.1819 20.3182 31.2666 20.7078 33.1198 21.4869C34.9729 22.2661 36.5523 23.4138 37.8579 24.93C39.1425 26.4672 40.1322 28.373 40.8271 30.6473C41.5221 32.9005 41.8695 35.5118 41.8695 38.481V49.4735ZM20.7691 45.683L33.025 36.5542C32.9829 34.8274 32.7934 33.3533 32.4564 32.1319C32.1406 30.8895 31.6668 29.8997 31.035 29.1627C30.5507 28.5731 29.9505 28.1414 29.2345 27.8676C28.5396 27.5728 27.7499 27.4254 26.8654 27.4254C25.8757 27.4254 25.0018 27.6149 24.2437 27.9939C23.5066 28.3519 22.8854 28.8995 22.38 29.6365C21.8325 30.4157 21.4219 31.4265 21.1481 32.6689C20.8954 33.9113 20.7691 35.3854 20.7691 37.0912V42.1768C20.7691 43.1876 20.7691 43.8614 20.7691 44.1984C20.7691 44.5353 20.7691 45.0302 20.7691 45.683ZM33.025 50.8001V45.4619C33.025 44.7669 33.025 44.2615 33.025 43.9457C33.025 43.6087 33.025 43.1349 33.025 42.5242L20.7691 51.6214C20.8112 53.0113 20.948 54.2432 21.1797 55.3172C21.4324 56.3911 21.7799 57.2861 22.2221 58.0021C22.7275 58.8655 23.3698 59.5078 24.1489 59.9289C24.9281 60.3501 25.8546 60.5607 26.9286 60.5607C27.9184 60.5607 28.7923 60.3817 29.5504 60.0237C30.3085 59.6447 30.9402 59.0761 31.4456 58.318C31.9721 57.5178 32.3617 56.4964 32.6144 55.254C32.8881 53.9905 33.025 52.5059 33.025 50.8001Z" fill="#E1E1E6"/>
<rect x="58.7916" y="1.37053" width="52.6133" height="80.9237" rx="3.66469" fill="black"/>
<rect x="58.7916" y="1.37053" width="52.6133" height="80.9237" rx="3.66469" stroke="#ED0137" stroke-width="0.860255"/>
<path d="M101.429 50.1714C101.429 53.1406 101.082 55.7624 100.387 58.0367C99.7128 60.2899 98.7336 62.1747 97.4491 63.6909C96.1645 65.2281 94.5957 66.3863 92.7425 67.1655C90.8894 67.9447 88.8046 68.3342 86.4882 68.3342C84.1928 68.3342 82.1186 67.9447 80.2654 67.1655C78.4123 66.3863 76.8435 65.2281 75.5589 63.6909C74.2533 62.1747 73.2425 60.2899 72.5265 58.0367C71.8316 55.7624 71.4841 53.1406 71.4841 50.1714V39.1789C71.4841 36.2097 71.8316 33.5985 72.5265 31.3452C73.2214 29.0709 74.2217 27.1652 75.5273 25.6279C76.8119 24.1117 78.3702 22.964 80.2023 22.1849C82.0554 21.4057 84.1297 21.0161 86.425 21.0161C88.7414 21.0161 90.8262 21.4057 92.6793 22.1849C94.5325 22.964 96.1119 24.1117 97.4175 25.6279C98.702 27.1652 99.6918 29.0709 100.387 31.3452C101.082 33.5985 101.429 36.2097 101.429 39.1789V50.1714ZM80.3286 46.3809L92.5846 37.2521C92.5425 35.5253 92.3529 34.0512 92.016 32.8299C91.7001 31.5874 91.2263 30.5977 90.5946 29.8606C90.1102 29.271 89.5101 28.8393 88.7941 28.5655C88.0992 28.2707 87.3095 28.1233 86.425 28.1233C85.4353 28.1233 84.5614 28.3128 83.8033 28.6919C83.0662 29.0499 82.445 29.5974 81.9396 30.3344C81.3921 31.1136 80.9814 32.1244 80.7077 33.3668C80.455 34.6093 80.3286 36.0834 80.3286 37.7891V42.8747C80.3286 43.8855 80.3286 44.5594 80.3286 44.8963C80.3286 45.2332 80.3286 45.7281 80.3286 46.3809ZM92.5846 51.4981V46.1598C92.5846 45.4649 92.5846 44.9595 92.5846 44.6436C92.5846 44.3067 92.5846 43.8328 92.5846 43.2222L80.3286 52.3194C80.3707 53.7092 80.5076 54.9411 80.7393 56.0151C80.992 57.0891 81.3394 57.9841 81.7816 58.7C82.2871 59.5634 82.9293 60.2057 83.7085 60.6269C84.4876 61.048 85.4142 61.2586 86.4882 61.2586C87.4779 61.2586 88.3519 61.0796 89.11 60.7216C89.8681 60.3426 90.4998 59.774 91.0052 59.0159C91.5317 58.2157 91.9212 57.1944 92.1739 55.9519C92.4477 54.6884 92.5846 53.2038 92.5846 51.4981Z" fill="#E1E1E6"/>
<mask id="path-5-outside-1_273_352" maskUnits="userSpaceOnUse" x="125.188" y="28" width="15" height="40" fill="black">
<rect fill="white" x="125.188" y="28" width="15" height="40"/>
<path d="M126.143 60.9144C126.143 59.2929 126.68 57.9241 127.754 56.808C128.828 55.6709 130.323 55.1023 132.239 55.1023C134.135 55.1023 135.619 55.6603 136.693 56.7764C137.788 57.8925 138.336 59.2719 138.336 60.9144C138.336 62.557 137.778 63.9258 136.662 65.0208C135.566 66.0948 134.092 66.6318 132.239 66.6318C130.365 66.6318 128.88 66.0842 127.785 64.9892C126.69 63.8942 126.143 62.5359 126.143 60.9144ZM126.143 34.8231C126.143 33.2016 126.68 31.8328 127.754 30.7167C128.828 29.5796 130.323 29.011 132.239 29.011C134.135 29.011 135.619 29.569 136.693 30.6851C137.788 31.8012 138.336 33.1806 138.336 34.8231C138.336 36.4657 137.778 37.8345 136.662 38.9295C135.566 40.0035 134.092 40.5405 132.239 40.5405C130.365 40.5405 128.88 39.9929 127.785 38.8979C126.69 37.8029 126.143 36.4446 126.143 34.8231Z"/>
</mask>
<path d="M126.143 60.9144C126.143 59.2929 126.68 57.9241 127.754 56.808C128.828 55.6709 130.323 55.1023 132.239 55.1023C134.135 55.1023 135.619 55.6603 136.693 56.7764C137.788 57.8925 138.336 59.2719 138.336 60.9144C138.336 62.557 137.778 63.9258 136.662 65.0208C135.566 66.0948 134.092 66.6318 132.239 66.6318C130.365 66.6318 128.88 66.0842 127.785 64.9892C126.69 63.8942 126.143 62.5359 126.143 60.9144ZM126.143 34.8231C126.143 33.2016 126.68 31.8328 127.754 30.7167C128.828 29.5796 130.323 29.011 132.239 29.011C134.135 29.011 135.619 29.569 136.693 30.6851C137.788 31.8012 138.336 33.1806 138.336 34.8231C138.336 36.4657 137.778 37.8345 136.662 38.9295C135.566 40.0035 134.092 40.5405 132.239 40.5405C130.365 40.5405 128.88 39.9929 127.785 38.8979C126.69 37.8029 126.143 36.4446 126.143 34.8231Z" fill="#ED0137"/>
<path d="M127.754 56.808L128.374 57.4045L128.379 57.3987L127.754 56.808ZM136.693 56.7764L136.073 57.373L136.079 57.3789L136.693 56.7764ZM136.662 65.0208L137.264 65.635L137.264 65.6348L136.662 65.0208ZM127.785 64.9892L128.394 64.3809L127.785 64.9892ZM127.754 30.7167L128.374 31.3132L128.379 31.3074L127.754 30.7167ZM136.693 30.6851L136.073 31.2817L136.079 31.2876L136.693 30.6851ZM136.662 38.9295L137.264 39.5437L137.264 39.5435L136.662 38.9295ZM127.785 38.8979L128.394 38.2896L127.785 38.8979ZM127.003 60.9144C127.003 59.5038 127.462 58.3522 128.374 57.4045L127.134 56.2115C125.898 57.496 125.283 59.082 125.283 60.9144H127.003ZM128.379 57.3987C129.255 56.4712 130.502 55.9626 132.239 55.9626V54.242C130.143 54.242 128.4 54.8706 127.128 56.2174L128.379 57.3987ZM132.239 55.9626C133.957 55.9626 135.197 56.4618 136.073 57.3729L137.313 56.18C136.042 54.8589 134.312 54.242 132.239 54.242V55.9626ZM136.079 57.3789C137.008 58.3254 137.475 59.4845 137.475 60.9144H139.196C139.196 59.0592 138.569 57.4597 137.307 56.174L136.079 57.3789ZM137.475 60.9144C137.475 62.339 137.001 63.4824 136.059 64.4067L137.264 65.6348C138.554 64.3691 139.196 62.7749 139.196 60.9144H137.475ZM136.059 64.4066C135.157 65.291 133.917 65.7715 132.239 65.7715V67.492C134.268 67.492 135.976 66.8985 137.264 65.635L136.059 64.4066ZM132.239 65.7715C130.542 65.7715 129.295 65.2817 128.394 64.3809L127.177 65.5975C128.466 66.8868 130.188 67.492 132.239 67.492V65.7715ZM128.394 64.3809C127.468 63.4555 127.003 62.3197 127.003 60.9144H125.283C125.283 62.7521 125.913 64.3329 127.177 65.5975L128.394 64.3809ZM127.003 34.8231C127.003 33.4125 127.462 32.2609 128.374 31.3132L127.134 30.1202C125.898 31.4047 125.283 32.9907 125.283 34.8231H127.003ZM128.379 31.3074C129.255 30.3799 130.502 29.8713 132.239 29.8713V28.1507C130.143 28.1507 128.4 28.7793 127.128 30.1261L128.379 31.3074ZM132.239 29.8713C133.957 29.8713 135.197 30.3705 136.073 31.2816L137.313 30.0887C136.042 28.7676 134.312 28.1507 132.239 28.1507V29.8713ZM136.079 31.2876C137.008 32.2341 137.475 33.3932 137.475 34.8231H139.196C139.196 32.9679 138.569 31.3684 137.307 30.0827L136.079 31.2876ZM137.475 34.8231C137.475 36.2477 137.001 37.3911 136.059 38.3154L137.264 39.5435C138.554 38.2778 139.196 36.6836 139.196 34.8231H137.475ZM136.059 38.3153C135.157 39.1997 133.917 39.6802 132.239 39.6802V41.4007C134.268 41.4007 135.976 40.8072 137.264 39.5437L136.059 38.3153ZM132.239 39.6802C130.542 39.6802 129.295 39.1904 128.394 38.2896L127.177 39.5062C128.466 40.7955 130.188 41.4007 132.239 41.4007V39.6802ZM128.394 38.2896C127.468 37.3642 127.003 36.2284 127.003 34.8231H125.283C125.283 36.6608 125.913 38.2416 127.177 39.5062L128.394 38.2896Z" fill="#ED0137" mask="url(#path-5-outside-1_273_352)"/>
<rect x="152.595" y="1.37071" width="52.6133" height="80.9237" rx="3.66469" fill="black"/>
<rect x="152.595" y="1.37071" width="52.6133" height="80.9237" rx="3.66469" stroke="#ED0137" stroke-width="0.860255"/>
<path d="M195.235 50.1716C195.235 53.1408 194.887 55.7626 194.192 58.0369C193.519 60.2901 192.539 62.1749 191.255 63.6911C189.97 65.2283 188.401 66.3865 186.548 67.1657C184.695 67.9448 182.61 68.3344 180.294 68.3344C177.998 68.3344 175.924 67.9448 174.071 67.1657C172.218 66.3865 170.649 65.2283 169.365 63.6911C168.059 62.1749 167.048 60.2901 166.332 58.0369C165.637 55.7626 165.29 53.1408 165.29 50.1716V39.1791C165.29 36.2099 165.637 33.5987 166.332 31.3454C167.027 29.0711 168.027 27.1653 169.333 25.6281C170.618 24.1119 172.176 22.9642 174.008 22.185C175.861 21.4059 177.935 21.0163 180.231 21.0163C182.547 21.0163 184.632 21.4059 186.485 22.185C188.338 22.9642 189.918 24.1119 191.223 25.6281C192.508 27.1653 193.497 29.0711 194.192 31.3454C194.887 33.5987 195.235 36.2099 195.235 39.1791V50.1716ZM174.134 46.3811L186.39 37.2523C186.348 35.5255 186.159 34.0514 185.822 32.83C185.506 31.5876 185.032 30.5979 184.4 29.8608C183.916 29.2712 183.316 28.8395 182.6 28.5657C181.905 28.2709 181.115 28.1235 180.231 28.1235C179.241 28.1235 178.367 28.313 177.609 28.6921C176.872 29.0501 176.251 29.5976 175.745 30.3346C175.198 31.1138 174.787 32.1246 174.513 33.367C174.261 34.6095 174.134 36.0836 174.134 37.7893V42.8749C174.134 43.8857 174.134 44.5595 174.134 44.8965C174.134 45.2334 174.134 45.7283 174.134 46.3811ZM186.39 51.4983V46.16C186.39 45.465 186.39 44.9596 186.39 44.6438C186.39 44.3068 186.39 43.833 186.39 43.2223L174.134 52.3195C174.176 53.7094 174.313 54.9413 174.545 56.0153C174.798 57.0893 175.145 57.9842 175.587 58.7002C176.093 59.5636 176.735 60.2059 177.514 60.6271C178.293 61.0482 179.22 61.2588 180.294 61.2588C181.284 61.2588 182.158 61.0798 182.916 60.7218C183.674 60.3428 184.305 59.7742 184.811 59.0161C185.337 58.2159 185.727 57.1946 185.98 55.9521C186.253 54.6886 186.39 53.204 186.39 51.4983Z" fill="#E1E1E6"/>
<rect x="210.817" y="1.37071" width="52.6133" height="80.9237" rx="3.66469" fill="black"/>
<rect x="210.817" y="1.37071" width="52.6133" height="80.9237" rx="3.66469" stroke="#ED0137" stroke-width="0.860255"/>
<path d="M253.456 50.1716C253.456 53.1408 253.109 55.7626 252.414 58.0369C251.74 60.2901 250.761 62.1749 249.476 63.6911C248.192 65.2283 246.623 66.3865 244.77 67.1657C242.917 67.9448 240.832 68.3344 238.516 68.3344C236.22 68.3344 234.146 67.9448 232.293 67.1657C230.44 66.3865 228.871 65.2283 227.586 63.6911C226.281 62.1749 225.27 60.2901 224.554 58.0369C223.859 55.7626 223.511 53.1408 223.511 50.1716V39.1791C223.511 36.2099 223.859 33.5987 224.554 31.3454C225.249 29.0711 226.249 27.1653 227.555 25.6281C228.839 24.1119 230.398 22.9642 232.23 22.185C234.083 21.4059 236.157 21.0163 238.452 21.0163C240.769 21.0163 242.854 21.4059 244.707 22.185C246.56 22.9642 248.139 24.1119 249.445 25.6281C250.729 27.1653 251.719 29.0711 252.414 31.3454C253.109 33.5987 253.456 36.2099 253.456 39.1791V50.1716ZM232.356 46.3811L244.612 37.2523C244.57 35.5255 244.38 34.0514 244.043 32.83C243.727 31.5876 243.254 30.5979 242.622 29.8608C242.138 29.2712 241.537 28.8395 240.821 28.5657C240.126 28.2709 239.337 28.1235 238.452 28.1235C237.463 28.1235 236.589 28.313 235.831 28.6921C235.094 29.0501 234.472 29.5976 233.967 30.3346C233.419 31.1138 233.009 32.1246 232.735 33.367C232.482 34.6095 232.356 36.0836 232.356 37.7893V42.8749C232.356 43.8857 232.356 44.5595 232.356 44.8965C232.356 45.2334 232.356 45.7283 232.356 46.3811ZM244.612 51.4983V46.16C244.612 45.465 244.612 44.9596 244.612 44.6438C244.612 44.3068 244.612 43.833 244.612 43.2223L232.356 52.3195C232.398 53.7094 232.535 54.9413 232.767 56.0153C233.019 57.0893 233.367 57.9842 233.809 58.7002C234.314 59.5636 234.957 60.2059 235.736 60.6271C236.515 61.0482 237.442 61.2588 238.516 61.2588C239.505 61.2588 240.379 61.0798 241.137 60.7218C241.895 60.3428 242.527 59.7742 243.033 59.0161C243.559 58.2159 243.949 57.1946 244.201 55.9521C244.475 54.6886 244.612 53.204 244.612 51.4983Z" fill="#E1E1E6"/>
</svg>
