<svg width="28" height="28" viewBox="0 0 28 28" fill="none" xmlns="http://www.w3.org/2000/svg">
<path d="M18.6432 10.6333C19.275 10.0015 19.9022 8.52741 17.2698 10.3174C14.8109 12.0097 12.3352 13.6776 9.84334 15.321C9.46387 15.4926 9.05364 15.5858 8.63729 15.5949C8.22093 15.6038 7.80703 15.5287 7.42048 15.3737C5.8411 14.8999 3.99733 14.2682 3.99733 14.2682C3.99733 14.2682 2.73841 13.4774 4.89347 12.6349C4.89347 12.6349 14.0047 8.89595 17.1646 7.57864C18.3755 7.05218 22.4829 5.3675 22.4829 5.3675C22.4829 5.3675 24.3794 4.62932 24.2214 6.42043C24.1689 7.15748 23.7476 9.73943 23.3264 12.5297C22.6936 16.4793 22.0092 20.7985 22.0092 20.7985C22.0092 20.7985 21.9039 22.0094 21.0089 22.22C20.0509 22.2038 19.1251 21.8705 18.3766 21.2724C18.166 21.1144 14.427 18.7442 13.057 17.586C12.9177 17.4916 12.8045 17.3634 12.7279 17.2135C12.6514 17.0637 12.614 16.8968 12.6192 16.7286C12.6245 16.5603 12.6723 16.3962 12.758 16.2513C12.8438 16.1065 12.9647 15.9857 13.1097 15.9001C14.9886 14.1811 16.8335 12.4251 18.6432 10.6333Z" fill="#FF012A"/>
</svg>
