<svg width="28" height="28" viewBox="0 0 28 28" fill="none" xmlns="http://www.w3.org/2000/svg">
<path d="M25.1787 6.63819C24.3184 7.0114 23.4086 7.25811 22.4777 7.37066C23.4599 6.78391 24.1959 5.86084 24.5492 4.77269C23.6263 5.32211 22.616 5.70921 21.5621 5.91717C20.8577 5.15331 19.9198 4.64484 18.8952 4.47152C17.8708 4.29819 16.8177 4.4698 15.9013 4.95944C14.9848 5.4491 14.2568 6.22907 13.8314 7.17705C13.406 8.12503 13.3073 9.1874 13.5508 10.1975C11.6846 10.1031 9.85916 9.61722 8.19304 8.77134C6.52692 7.92547 5.05739 6.73855 3.87989 5.2877C3.46689 6.00891 3.24988 6.82568 3.25043 7.65678C3.24896 8.42859 3.43837 9.18879 3.80179 9.8697C4.1652 10.5506 4.69135 11.1311 5.33338 11.5595C4.58716 11.5391 3.85687 11.3389 3.20465 10.9758V11.033C3.21024 12.1145 3.58918 13.1607 4.27738 13.9948C4.96559 14.829 5.9208 15.3999 6.98143 15.611C6.57315 15.7351 6.14925 15.8007 5.7225 15.8055C5.4271 15.8021 5.13243 15.7752 4.84125 15.7254C5.14329 16.6556 5.72779 17.4686 6.51342 18.0511C7.29906 18.6336 8.24675 18.9568 9.22461 18.9757C7.57336 20.2749 5.53467 20.9841 3.43354 20.99C3.05099 20.9913 2.66873 20.9683 2.28906 20.9213C4.43431 22.3064 6.93429 23.0417 9.48784 23.0386C11.25 23.0569 12.9981 22.7239 14.6301 22.059C16.2621 21.3941 17.7453 20.4107 18.993 19.1663C20.2407 17.9218 21.2279 16.4412 21.897 14.8108C22.5661 13.1805 22.9034 11.4332 22.8897 9.67106C22.8897 9.47649 22.8897 9.2705 22.8897 9.06449C23.7878 8.39475 24.5624 7.57371 25.1787 6.63819Z" fill="#FF012A"/>
</svg>
